<?xml version="1.0" encoding="UTF-8" standalone="no"?>
<!-- Created with Inkscape (http://www.inkscape.org/) -->

<svg
   width="210mm"
   height="297mm"
   viewBox="0 0 210 297"
   version="1.1"
   id="svg1"
   xml:space="preserve"
   inkscape:version="1.3.2 (091e20e, 2023-11-25, custom)"
   sodipodi:docname="datafest-logo-v3.svg"
   xmlns:inkscape="http://www.inkscape.org/namespaces/inkscape"
   xmlns:sodipodi="http://sodipodi.sourceforge.net/DTD/sodipodi-0.dtd"
   xmlns="http://www.w3.org/2000/svg"
   xmlns:svg="http://www.w3.org/2000/svg"><sodipodi:namedview
     id="namedview1"
     pagecolor="#ffffff"
     bordercolor="#000000"
     borderopacity="0.25"
     inkscape:showpageshadow="2"
     inkscape:pageopacity="0.0"
     inkscape:pagecheckerboard="0"
     inkscape:deskcolor="#d1d1d1"
     inkscape:document-units="mm"
     inkscape:zoom="1.1124532"
     inkscape:cx="416.1973"
     inkscape:cy="454.40115"
     inkscape:window-width="1920"
     inkscape:window-height="1121"
     inkscape:window-x="-9"
     inkscape:window-y="-9"
     inkscape:window-maximized="1"
     inkscape:current-layer="layer1" /><defs
     id="defs1"><linearGradient
       id="swatch9"
       inkscape:swatch="solid"><stop
         style="stop-color:#000000;stop-opacity:1;"
         offset="0"
         id="stop9" /></linearGradient></defs><g
     inkscape:label="Layer 1"
     inkscape:groupmode="layer"
     id="layer1"><path
       style="fill:#54585a;stroke-width:0;stroke-dasharray:none;fill-opacity:1"
       d="m 47.209987,133.19539 c -0.186266,-0.0659 -0.497196,-0.28704 -0.690954,-0.49137 -0.586965,-0.61898 -0.699364,-1.42353 -0.303879,-2.17517 0.337143,-0.64076 0.810084,-0.95673 1.49752,-1.00051 0.644572,-0.041 1.060339,0.0816 1.456897,0.4298 0.431103,0.37851 0.631193,0.82789 0.634044,1.424 0.0067,1.39376 -1.265663,2.28327 -2.593628,1.81325 z m 4.318,0 c -0.45697,-0.16174 -1.019557,-0.76893 -1.145377,-1.23619 -0.218495,-0.81143 0.110312,-1.72739 0.778927,-2.16986 0.403995,-0.26735 1.217201,-0.35829 1.720004,-0.19235 0.40865,0.13487 0.857382,0.53562 1.07301,0.95829 0.266657,0.52269 0.198866,1.4442 -0.142464,1.93657 -0.486504,0.70179 -1.450299,0.99866 -2.2841,0.70354 z m 4.233334,-0.0307 c -1.038561,-0.473 -1.438308,-1.76112 -0.855275,-2.75599 0.327689,-0.55916 0.78767,-0.83869 1.449436,-0.88083 0.637992,-0.0406 1.054594,0.083 1.450089,0.43023 0.484761,0.42562 0.64504,0.83431 0.608783,1.55232 -0.02612,0.51726 -0.07178,0.67487 -0.284267,0.98139 -0.503694,0.72659 -1.57971,1.03224 -2.368766,0.67288 z m 3.767666,-12.24571 v -11.8145 l 5.6515,0.0229 5.6515,0.0229 0.407819,0.20833 c 0.498132,0.25446 1.026744,0.81268 1.271893,1.34313 l 0.182955,0.39587 v 9.82133 9.82134 l -0.223054,0.46566 c -0.272585,0.56908 -0.713362,1.02544 -1.241825,1.28574 l -0.397788,0.19593 -5.6515,0.0229 -5.6515,0.0229 z m 10.583334,0 v -9.18633 h -3.979334 -3.979333 v 9.18633 9.18634 h 3.979333 3.979334 z m 5.926666,11.73183 c -0.733585,-0.22396 -1.315255,-0.73424 -1.642054,-1.44053 -0.171627,-0.37092 -0.178279,-0.5085 -0.178279,-3.6873 v -3.302 l 0.221039,-0.4713 c 0.261469,-0.55751 0.7083,-1.01619 1.249851,-1.28301 0.390062,-0.19217 0.410585,-0.19313 4.68861,-0.21714 l 4.296833,-0.0241 v -1.30939 -1.30938 h -5.291666 -5.291667 v -1.31233 -1.31234 h 5.544758 c 5.267768,0 5.566187,0.008 5.973699,0.16299 0.633481,0.2407 1.127572,0.68679 1.429149,1.2903 l 0.260394,0.52109 v 6.88681 6.88681 l -5.5245,-0.007 c -3.038475,-0.004 -5.61975,-0.0364 -5.736167,-0.0719 z m 8.636,-5.17016 v -2.62467 h -3.937 -3.937 v 2.62467 2.62467 h 3.937 3.937 z m 7.811724,5.07013 c -0.590147,-0.22684 -1.147061,-0.79185 -1.371333,-1.39127 -0.170418,-0.45548 -0.175058,-0.61478 -0.175058,-6.01037 v -5.54249 h -1.312333 -1.312333 v -1.31013 -1.31013 l 1.291166,-0.0234 1.291167,-0.0234 0.02201,-3.91583 0.02201,-3.91584 1.311487,0 h 1.311488 v 3.937 3.937 h 2.624667 2.624666 v 1.31234 1.31233 h -2.624666 -2.624667 v 5.24933 5.24934 h 2.624667 2.624666 v 1.31233 1.31233 l -2.942166,-0.004 c -2.738831,-0.004 -2.972802,-0.0162 -3.385443,-0.17479 z m 9.266939,0.0497 c -0.73206,-0.26872 -1.38534,-0.96869 -1.57802,-1.69082 -0.0562,-0.21065 -0.0905,-1.51366 -0.0908,-3.44699 -4.4e-4,-2.93232 0.009,-3.13473 0.17403,-3.57471 0.21218,-0.5671 0.77694,-1.17378 1.33091,-1.4297 0.39159,-0.18091 0.48559,-0.18508 4.69642,-0.20872 l 4.29684,-0.0241 v -1.30939 -1.30938 h -5.29167 -5.291666 v -1.31464 -1.31464 l 5.651496,0.0235 5.6515,0.0235 0.3844,0.18945 c 0.49768,0.24528 1.04236,0.78848 1.28553,1.28202 l 0.19274,0.39119 0.0226,6.9215 0.0226,6.9215 -5.56828,-0.006 c -4.52992,-0.005 -5.62802,-0.0279 -5.88862,-0.12355 z m 8.82934,-5.11982 v -2.62467 h -3.937 -3.937 v 2.62467 2.62467 h 3.937 3.937 z m 4.318,-6.56167 v -11.811 h 6.56166 6.56167 v 1.31234 1.31233 h -5.24933 -5.24934 v 2.62467 2.62466 h 3.937 3.937 v 1.31234 1.31233 h -3.937 -3.937 v 6.56167 6.56166 h -1.31233 -1.31233 z m 13.91621,11.7188 c -0.41461,-0.12017 -1.06062,-0.59381 -1.31771,-0.96613 -0.4911,-0.71121 -0.49923,-0.83224 -0.47287,-7.04058 l 0.024,-5.65942 0.19542,-0.4317 c 0.22911,-0.50611 0.75005,-1.03992 1.28625,-1.31803 l 0.381,-0.1976 h 4.699 4.699 l 0.45371,0.2513 c 0.52222,0.28925 0.9685,0.76816 1.22544,1.31503 0.16945,0.36067 0.18056,0.53796 0.20829,3.32252 l 0.0293,2.94153 -5.27637,0.0218 -5.27637,0.0218 -0.0224,2.6035 -0.0224,2.6035 h 5.29289 5.29289 v 1.31233 1.31233 l -5.56683,-0.008 c -3.06176,-0.004 -5.68629,-0.0423 -5.83229,-0.0846 z m 8.77445,-11.7188 v -1.31233 h -3.97933 -3.97933 v 1.31233 1.31234 h 3.97933 3.97933 z m 4.064,10.50098 v -1.31464 h 5.24934 5.24933 v -2.62174 -2.62175 l -4.33917,-0.0241 c -4.31459,-0.0239 -4.34137,-0.0252 -4.72862,-0.21599 -0.49638,-0.24458 -0.95206,-0.70027 -1.19664,-1.19665 -0.18392,-0.37325 -0.1919,-0.47748 -0.1919,-2.50612 v -2.11666 l 0.24946,-0.45033 c 0.27853,-0.50281 0.63822,-0.85193 1.17106,-1.13665 l 0.35748,-0.19102 5.6515,-0.0235 5.6515,-0.0235 v 1.31464 1.31464 h -5.24934 -5.24933 v 1.30938 1.30939 l 4.29683,0.0241 4.29684,0.0241 0.42333,0.22552 c 0.50737,0.27029 0.96807,0.73704 1.23986,1.25615 l 0.19947,0.381 v 3.34433 3.34433 l -0.23622,0.48105 c -0.25612,0.52153 -0.62364,0.89101 -1.1843,1.1906 l -0.35748,0.19102 -5.6515,0.0235 -5.6515,0.0235 z m 18.53017,1.17729 c -0.53267,-0.164 -1.18366,-0.76431 -1.43717,-1.32527 l -0.202,-0.447 -0.0235,-5.60916 -0.0235,-5.60917 h -1.31001 -1.31001 v -1.31233 -1.31234 h 1.31234 1.31233 v -3.937 -3.937 h 1.31233 1.31234 v 3.937 3.937 h 2.62466 2.62467 v 1.31234 1.31233 h -2.62467 -2.62466 v 5.24933 5.24934 h 2.62466 2.62467 v 1.31233 1.31233 l -2.89983,-0.006 c -2.25994,-0.005 -2.98652,-0.0326 -3.29267,-0.12684 z m -108.657833,-3.4659 c -0.45697,-0.16174 -1.019557,-0.76893 -1.145377,-1.23619 -0.218976,-0.81322 0.11038,-1.72743 0.782587,-2.17228 0.278652,-0.1844 0.468006,-0.23606 0.95555,-0.26068 0.682382,-0.0345 1.090129,0.1158 1.493075,0.5502 0.410391,0.44242 0.516668,0.75802 0.48258,1.43305 -0.02628,0.52039 -0.07101,0.67389 -0.285236,0.97869 -0.497646,0.70807 -1.448569,1.00261 -2.283179,0.70721 z m 4.318,0 c -0.456971,-0.16174 -1.019557,-0.76893 -1.145377,-1.23619 -0.218976,-0.81322 0.11038,-1.72743 0.782587,-2.17228 0.278652,-0.1844 0.468006,-0.23606 0.95555,-0.26068 0.682382,-0.0345 1.090129,0.1158 1.493075,0.5502 0.410391,0.44242 0.516668,0.75802 0.48258,1.43305 -0.02628,0.52039 -0.07102,0.67389 -0.285236,0.97869 -0.497646,0.70807 -1.448569,1.00261 -2.283179,0.70721 z m -8.382,-3.9312 c -1.386436,-0.33753 -1.942962,-1.99586 -1.038169,-3.09353 0.381577,-0.46292 0.851277,-0.67332 1.503836,-0.67365 0.615609,-3.1e-4 0.924482,0.12719 1.357777,0.56048 0.365998,0.366 0.522072,0.76616 0.52065,1.33491 -0.0015,0.60289 -0.10006,0.84649 -0.532102,1.3152 -0.482409,0.52335 -1.130628,0.72246 -1.811992,0.55659 z m 4.318,0 c -1.386436,-0.33753 -1.942962,-1.99586 -1.038169,-3.09353 0.381577,-0.46292 0.851277,-0.67332 1.503836,-0.67365 0.615608,-3.1e-4 0.924482,0.12719 1.357777,0.56048 0.369745,0.36975 0.50489,0.72583 0.50489,1.3303 0,0.64036 -0.08108,0.84761 -0.516342,1.31981 -0.482409,0.52335 -1.130628,0.72246 -1.811992,0.55659 z m 4.318,0 c -0.869558,-0.2117 -1.481666,-0.98347 -1.481666,-1.86817 0,-0.84166 0.634985,-1.6697 1.425916,-1.85944 0.578975,-0.1389 1.091258,-0.0558 1.549944,0.25128 0.531675,0.356 0.774758,0.75985 0.818109,1.35918 0.05463,0.75529 -0.03017,1.03455 -0.458994,1.51151 -0.514868,0.57265 -1.144123,0.77829 -1.853309,0.60564 z m -17.526,-4.31324 c -0.875619,-0.40167 -1.315195,-1.34455 -1.062907,-2.27989 0.120973,-0.4485 0.610276,-1.00693 1.062907,-1.21308 0.401778,-0.18298 1.123311,-0.20397 1.505553,-0.0438 1.271677,0.5329 1.59367,2.25923 0.597701,3.20451 -0.519084,0.49266 -1.437345,0.63772 -2.103254,0.33225 z m 4.233334,0 c -0.87562,-0.40167 -1.315196,-1.34455 -1.062907,-2.27989 0.120972,-0.4485 0.610276,-1.00693 1.062907,-1.21308 0.401777,-0.18298 1.12331,-0.20397 1.505552,-0.0438 1.288083,0.53978 1.606519,2.24704 0.597702,3.20451 -0.519085,0.49266 -1.437346,0.63772 -2.103254,0.33225 z m 4.217196,-0.0554 c -1.111596,-0.55393 -1.384401,-2.01164 -0.549729,-2.93742 0.395602,-0.43878 0.866408,-0.65388 1.436419,-0.65625 1.112726,-0.005 1.89784,0.80299 1.89237,1.94659 -0.0069,1.44062 -1.46234,2.30323 -2.77906,1.64708 z m 4.318,0 c -1.129098,-0.56265 -1.386329,-2.02627 -0.521089,-2.96494 0.859689,-0.93265 2.314946,-0.82305 3.009619,0.22667 0.270017,0.40803 0.361708,1.21876 0.194974,1.72396 -0.347545,1.05308 -1.631688,1.53846 -2.683504,1.01431 z m 4.20707,-0.0607 c -1.051307,-0.63129 -1.244481,-1.99912 -0.410159,-2.90425 0.859689,-0.93265 2.314946,-0.82305 3.009619,0.22667 0.476883,0.72062 0.33663,1.89983 -0.291565,2.45139 -0.420941,0.36959 -0.777409,0.50135 -1.356354,0.50135 -0.406098,0 -0.574301,-0.0486 -0.951541,-0.27516 z M 42.934321,116.7912 c -0.414495,-0.13845 -1.040216,-0.79072 -1.16651,-1.216 -0.336683,-1.13374 0.299505,-2.23952 1.427653,-2.48147 1.685554,-0.36148 2.937081,1.51774 1.980261,2.97345 -0.421339,0.64102 -1.472932,0.98071 -2.241404,0.72402 z m 4.318,-0.005 c -0.410907,-0.13024 -1.039297,-0.78256 -1.16651,-1.21094 -0.336298,-1.13244 0.299521,-2.23952 1.424797,-2.48085 1.198094,-0.25695 2.298646,0.63695 2.298646,1.86701 0,1.34911 -1.247904,2.2397 -2.556933,1.82478 z m 4.318,0.005 c -0.412703,-0.13785 -1.06559,-0.81205 -1.177826,-1.21628 -0.409502,-1.47483 0.799305,-2.79688 2.269094,-2.48167 0.497455,0.10669 1.039864,0.54058 1.290894,1.03264 0.257963,0.50565 0.20179,1.42578 -0.116395,1.90659 -0.447022,0.6755 -1.479683,1.0213 -2.265767,0.75872 z m 4.320677,3.5e-4 c -0.427656,-0.14363 -1.067397,-0.79827 -1.179084,-1.20653 -0.407407,-1.48922 0.792827,-2.80807 2.267675,-2.49177 0.497455,0.10669 1.039864,0.54058 1.290894,1.03264 0.265931,0.52127 0.20244,1.43283 -0.13357,1.91769 -0.338878,0.489 -0.857034,0.7775 -1.465393,0.81588 -0.267776,0.0169 -0.619011,-0.0137 -0.780522,-0.0679 z m 18.200656,-4.03144 c 0,-2.85817 0.0056,-2.959 0.175478,-3.175 l 0.175479,-0.22309 1.427043,0 h 1.427043 l 0.175478,0.22309 c 0.169906,0.216 0.175479,0.31683 0.175479,3.175 v 2.95191 h -0.338667 -0.338666 v -1.778 -1.778 h -1.100667 -1.100667 v 1.778 1.778 h -0.338666 -0.338667 z m 2.860796,-2.02225 -0.02446,-0.74084 h -1.058333 -1.058333 l -0.02446,0.74084 -0.02446,0.74083 h 1.107259 1.107259 z m 1.372537,4.6355 v -0.33867 h 1.439334 1.439333 v -1.43933 -1.43934 h -1.191846 -1.191846 l -0.247488,-0.24748 c -0.243381,-0.24338 -0.247487,-0.26286 -0.247487,-1.17392 0,-0.80904 0.02224,-0.95469 0.175479,-1.14951 l 0.175478,-0.22309 h 1.602522 1.602521 v 0.29429 0.29429 l -1.418166,0.0232 -1.418167,0.0232 -0.02446,0.74084 -0.02446,0.74083 h 1.234811 c 1.198146,0 1.240983,0.006 1.44263,0.20782 0.206525,0.20652 0.207818,0.21815 0.207818,1.86918 v 1.66136 l -0.247487,0.24749 -0.247487,0.24748 H 79.8555 78.324987 Z m 4.318,-2.61325 c 0,-2.85817 0.0056,-2.959 0.175479,-3.175 l 0.175478,-0.22309 1.427043,0 h 1.427043 l 0.175479,0.22309 c 0.169905,0.216 0.175478,0.31683 0.175478,3.175 v 2.95191 H 85.86032 85.521654 v -1.778 -1.778 H 84.420987 83.32032 v 1.778 1.778 h -0.338666 -0.338667 z m 2.860796,-2.02225 -0.02446,-0.74084 h -1.058333 -1.058333 l -0.02446,0.74084 -0.02446,0.74083 h 1.107259 1.107259 z m -34.170214,1.74598 c -0.813819,-0.40283 -1.202739,-1.36316 -0.938549,-2.31748 0.13131,-0.47432 0.768478,-1.09533 1.259501,-1.22754 0.82253,-0.22149 1.734584,0.10464 2.181567,0.78008 0.298675,0.45133 0.373726,1.40269 0.146191,1.85315 -0.200515,0.39697 -0.533305,0.73882 -0.905752,0.93039 -0.442197,0.22746 -1.263566,0.21869 -1.742958,-0.0186 z m 4.472615,0.086 c -0.900001,-0.35918 -1.37188,-1.39667 -1.093164,-2.40346 0.13131,-0.47432 0.768478,-1.09533 1.259501,-1.22754 0.82253,-0.22149 1.734584,0.10464 2.181567,0.78008 0.298675,0.45133 0.373726,1.40269 0.146191,1.85315 -0.200515,0.39697 -0.533305,0.73882 -0.905752,0.93039 -0.345341,0.17764 -1.219196,0.21471 -1.588343,0.0674 z"
       id="path4" /><path
       style="fill:#c69214;fill-opacity:1;stroke:none;stroke-opacity:1;stroke-width:0;stroke-dasharray:none"
       d="m 47.209987,133.19539 c -0.186266,-0.0659 -0.497196,-0.28704 -0.690954,-0.49137 -0.586965,-0.61898 -0.699364,-1.42353 -0.303879,-2.17517 0.337143,-0.64076 0.810084,-0.95673 1.49752,-1.00051 0.644572,-0.041 1.060339,0.0816 1.456897,0.4298 0.431103,0.37851 0.631193,0.82789 0.634044,1.424 0.0067,1.39376 -1.265663,2.28327 -2.593628,1.81325 z m 4.318,0 c -0.45697,-0.16174 -1.019557,-0.76893 -1.145377,-1.23619 -0.218495,-0.81143 0.110312,-1.72739 0.778927,-2.16986 0.403995,-0.26735 1.217201,-0.35829 1.720004,-0.19235 0.40865,0.13487 0.857382,0.53562 1.07301,0.95829 0.266657,0.52269 0.198866,1.4442 -0.142464,1.93657 -0.486504,0.70179 -1.450299,0.99866 -2.2841,0.70354 z m 4.233334,-0.0307 c -1.038561,-0.473 -1.438308,-1.76112 -0.855275,-2.75599 0.327689,-0.55916 0.78767,-0.83869 1.449436,-0.88083 0.637992,-0.0406 1.054594,0.083 1.450089,0.43023 0.484761,0.42562 0.64504,0.83431 0.608783,1.55232 -0.02612,0.51726 -0.07178,0.67487 -0.284267,0.98139 -0.503694,0.72659 -1.57971,1.03224 -2.368766,0.67288 z m 3.767666,-12.24571 v -11.8145 l 5.6515,0.0229 5.6515,0.0229 0.407819,0.20833 c 0.498132,0.25446 1.026744,0.81268 1.271893,1.34313 l 0.182955,0.39587 v 9.82133 9.82134 l -0.223054,0.46566 c -0.272585,0.56908 -0.713362,1.02544 -1.241825,1.28574 l -0.397788,0.19593 -5.6515,0.0229 -5.6515,0.0229 z m 10.583334,0 v -9.18633 h -3.979334 -3.979333 v 9.18633 9.18634 h 3.979333 3.979334 z m 5.926666,11.73183 c -0.733585,-0.22396 -1.315255,-0.73424 -1.642054,-1.44053 -0.171627,-0.37092 -0.178279,-0.5085 -0.178279,-3.6873 v -3.302 l 0.221039,-0.4713 c 0.261469,-0.55751 0.7083,-1.01619 1.249851,-1.28301 0.390062,-0.19217 0.410585,-0.19313 4.68861,-0.21714 l 4.296833,-0.0241 v -1.30939 -1.30938 h -5.291666 -5.291667 v -1.31233 -1.31234 h 5.544758 c 5.267768,0 5.566187,0.008 5.973699,0.16299 0.633481,0.2407 1.127572,0.68679 1.429149,1.2903 l 0.260394,0.52109 v 6.88681 6.88681 l -5.5245,-0.007 c -3.038475,-0.004 -5.61975,-0.0364 -5.736167,-0.0719 z m 8.636,-5.17016 v -2.62467 h -3.937 -3.937 v 2.62467 2.62467 h 3.937 3.937 z m 7.811724,5.07013 c -0.590147,-0.22684 -1.147061,-0.79185 -1.371333,-1.39127 -0.170418,-0.45548 -0.175058,-0.61478 -0.175058,-6.01037 v -5.54249 h -1.312333 -1.312333 v -1.31013 -1.31013 l 1.291166,-0.0234 1.291167,-0.0234 0.02201,-3.91583 0.02201,-3.91584 h 1.311487 1.311488 v 3.937 3.937 h 2.624667 2.624666 v 1.31234 1.31233 h -2.624666 -2.624667 v 5.24933 5.24934 h 2.624667 2.624666 v 1.31233 1.31233 l -2.942166,-0.004 c -2.738831,-0.004 -2.972802,-0.0162 -3.385443,-0.17479 z m 9.266939,0.0497 c -0.73206,-0.26872 -1.38534,-0.96869 -1.57802,-1.69082 -0.0562,-0.21065 -0.0905,-1.51366 -0.0908,-3.44699 -4.4e-4,-2.93232 0.009,-3.13473 0.17403,-3.57471 0.21218,-0.5671 0.77694,-1.17378 1.33091,-1.4297 0.39159,-0.18091 0.48559,-0.18508 4.69642,-0.20872 l 4.29684,-0.0241 v -1.30939 -1.30938 h -5.29167 -5.291666 v -1.31464 -1.31464 l 5.651496,0.0235 5.6515,0.0235 0.3844,0.18945 c 0.49768,0.24528 1.04236,0.78848 1.28553,1.28202 l 0.19274,0.39119 0.0226,6.9215 0.0226,6.9215 -5.56828,-0.006 c -4.52992,-0.005 -5.62802,-0.0279 -5.88862,-0.12355 z m 8.82934,-5.11982 v -2.62467 h -3.937 -3.937 v 2.62467 2.62467 h 3.937 3.937 z m 4.318,-6.56167 v -11.811 h 6.56166 6.56167 v 1.31234 1.31233 h -5.24933 -5.24934 v 2.62467 2.62466 h 3.937 3.937 v 1.31234 1.31233 h -3.937 -3.937 v 6.56167 6.56166 h -1.31233 -1.31233 z m 13.91621,11.7188 c -0.41461,-0.12017 -1.06062,-0.59381 -1.31771,-0.96613 -0.4911,-0.71121 -0.49923,-0.83224 -0.47287,-7.04058 l 0.024,-5.65942 0.19542,-0.4317 c 0.22911,-0.50611 0.75005,-1.03992 1.28625,-1.31803 l 0.381,-0.1976 h 4.699 4.699 l 0.45371,0.2513 c 0.52222,0.28925 0.9685,0.76816 1.22544,1.31503 0.16945,0.36067 0.18056,0.53796 0.20829,3.32252 l 0.0293,2.94153 -5.27637,0.0218 -5.27637,0.0218 -0.0224,2.6035 -0.0224,2.6035 h 5.29289 5.29289 v 1.31233 1.31233 l -5.56683,-0.008 c -3.06176,-0.004 -5.68629,-0.0423 -5.83229,-0.0846 z m 8.77445,-11.7188 v -1.31233 h -3.97933 -3.97933 v 1.31233 1.31234 h 3.97933 3.97933 z m 4.064,10.50098 v -1.31464 h 5.24934 5.24933 v -2.62174 -2.62175 l -4.33917,-0.0241 c -4.31459,-0.0239 -4.34137,-0.0252 -4.72862,-0.21599 -0.49638,-0.24458 -0.95206,-0.70027 -1.19664,-1.19665 -0.18392,-0.37325 -0.1919,-0.47748 -0.1919,-2.50612 v -2.11666 l 0.24946,-0.45033 c 0.27853,-0.50281 0.63822,-0.85193 1.17106,-1.13665 l 0.35748,-0.19102 5.6515,-0.0235 5.6515,-0.0235 v 1.31464 1.31464 h -5.24934 -5.24933 v 1.30938 1.30939 l 4.29683,0.0241 4.29684,0.0241 0.42333,0.22552 c 0.50737,0.27029 0.96807,0.73704 1.23986,1.25615 l 0.19947,0.381 v 3.34433 3.34433 l -0.23622,0.48105 c -0.25612,0.52153 -0.62364,0.89101 -1.1843,1.1906 l -0.35748,0.19102 -5.6515,0.0235 -5.6515,0.0235 z m 18.53017,1.17729 c -0.53267,-0.164 -1.18366,-0.76431 -1.43717,-1.32527 l -0.202,-0.447 -0.0235,-5.60916 -0.0235,-5.60917 h -1.31001 -1.31001 v -1.31233 -1.31234 h 1.31234 1.31233 v -3.937 -3.937 h 1.31233 1.31234 v 3.937 3.937 h 2.62466 2.62467 v 1.31234 1.31233 h -2.62467 -2.62466 v 5.24933 5.24934 h 2.62466 2.62467 v 1.31233 1.31233 l -2.89983,-0.006 c -2.25994,-0.005 -2.98652,-0.0326 -3.29267,-0.12684 z m -108.657833,-3.4659 c -0.45697,-0.16174 -1.019557,-0.76893 -1.145377,-1.23619 -0.218976,-0.81322 0.11038,-1.72743 0.782587,-2.17228 0.278652,-0.1844 0.468006,-0.23606 0.95555,-0.26068 0.682382,-0.0345 1.090129,0.1158 1.493075,0.5502 0.410391,0.44242 0.516668,0.75802 0.48258,1.43305 -0.02628,0.52039 -0.07101,0.67389 -0.285236,0.97869 -0.497646,0.70807 -1.448569,1.00261 -2.283179,0.70721 z m 4.318,0 c -0.456971,-0.16174 -1.019557,-0.76893 -1.145377,-1.23619 -0.218976,-0.81322 0.11038,-1.72743 0.782587,-2.17228 0.278652,-0.1844 0.468006,-0.23606 0.95555,-0.26068 0.682382,-0.0345 1.090129,0.1158 1.493075,0.5502 0.410391,0.44242 0.516668,0.75802 0.48258,1.43305 -0.02628,0.52039 -0.07102,0.67389 -0.285236,0.97869 -0.497646,0.70807 -1.448569,1.00261 -2.283179,0.70721 z m -8.382,-3.9312 c -1.386436,-0.33753 -1.942962,-1.99586 -1.038169,-3.09353 0.381577,-0.46292 0.851277,-0.67332 1.503836,-0.67365 0.615609,-3.1e-4 0.924482,0.12719 1.357777,0.56048 0.365998,0.366 0.522072,0.76616 0.52065,1.33491 -0.0015,0.60289 -0.10006,0.84649 -0.532102,1.3152 -0.482409,0.52335 -1.130628,0.72246 -1.811992,0.55659 z m 4.318,0 c -1.386436,-0.33753 -1.942962,-1.99586 -1.038169,-3.09353 0.381577,-0.46292 0.851277,-0.67332 1.503836,-0.67365 0.615608,-3.1e-4 0.924482,0.12719 1.357777,0.56048 0.369745,0.36975 0.50489,0.72583 0.50489,1.3303 0,0.64036 -0.08108,0.84761 -0.516342,1.31981 -0.482409,0.52335 -1.130628,0.72246 -1.811992,0.55659 z m 4.318,0 c -0.869558,-0.2117 -1.481666,-0.98347 -1.481666,-1.86817 0,-0.84166 0.634985,-1.6697 1.425916,-1.85944 0.578975,-0.1389 1.091258,-0.0558 1.549944,0.25128 0.531675,0.356 0.774758,0.75985 0.818109,1.35918 0.05463,0.75529 -0.03017,1.03455 -0.458994,1.51151 -0.514868,0.57265 -1.144123,0.77829 -1.853309,0.60564 z m -17.526,-4.31324 c -0.875619,-0.40167 -1.315195,-1.34455 -1.062907,-2.27989 0.120973,-0.4485 0.610276,-1.00693 1.062907,-1.21308 0.401778,-0.18298 1.123311,-0.20397 1.505553,-0.0438 1.271677,0.5329 1.59367,2.25923 0.597701,3.20451 -0.519084,0.49266 -1.437345,0.63772 -2.103254,0.33225 z m 4.233334,0 c -0.87562,-0.40167 -1.315196,-1.34455 -1.062907,-2.27989 0.120972,-0.4485 0.610276,-1.00693 1.062907,-1.21308 0.401777,-0.18298 1.12331,-0.20397 1.505552,-0.0438 1.288083,0.53978 1.606519,2.24704 0.597702,3.20451 -0.519085,0.49266 -1.437346,0.63772 -2.103254,0.33225 z m 4.217196,-0.0554 c -1.111596,-0.55393 -1.384401,-2.01164 -0.549729,-2.93742 0.395602,-0.43878 0.866408,-0.65388 1.436419,-0.65625 1.112726,-0.005 1.89784,0.80299 1.89237,1.94659 -0.0069,1.44062 -1.46234,2.30323 -2.77906,1.64708 z m 4.318,0 c -1.129098,-0.56265 -1.386329,-2.02627 -0.521089,-2.96494 0.859689,-0.93265 2.314946,-0.82305 3.009619,0.22667 0.270017,0.40803 0.361708,1.21876 0.194974,1.72396 -0.347545,1.05308 -1.631688,1.53846 -2.683504,1.01431 z m 4.20707,-0.0607 c -1.051307,-0.63129 -1.244481,-1.99912 -0.410159,-2.90425 0.859689,-0.93265 2.314946,-0.82305 3.009619,0.22667 0.476883,0.72062 0.33663,1.89983 -0.291565,2.45139 -0.420941,0.36959 -0.777409,0.50135 -1.356354,0.50135 -0.406098,0 -0.574301,-0.0486 -0.951541,-0.27516 z M 42.934321,116.7912 c -0.414495,-0.13845 -1.040216,-0.79072 -1.16651,-1.216 -0.336683,-1.13374 0.299505,-2.23952 1.427653,-2.48147 1.685554,-0.36148 2.937081,1.51774 1.980261,2.97345 -0.421339,0.64102 -1.472932,0.98071 -2.241404,0.72402 z m 4.318,-0.005 c -0.410907,-0.13024 -1.039297,-0.78256 -1.16651,-1.21094 -0.336298,-1.13244 0.299521,-2.23952 1.424797,-2.48085 1.198094,-0.25695 2.298646,0.63695 2.298646,1.86701 0,1.34911 -1.247904,2.2397 -2.556933,1.82478 z m 4.318,0.005 c -0.412703,-0.13785 -1.06559,-0.81205 -1.177826,-1.21628 -0.409502,-1.47483 0.799305,-2.79688 2.269094,-2.48167 0.497455,0.10669 1.039864,0.54058 1.290894,1.03264 0.257963,0.50565 0.20179,1.42578 -0.116395,1.90659 -0.447022,0.6755 -1.479683,1.0213 -2.265767,0.75872 z m 4.320677,3.5e-4 c -0.427656,-0.14363 -1.067397,-0.79827 -1.179084,-1.20653 -0.407407,-1.48922 0.792827,-2.80807 2.267675,-2.49177 0.497455,0.10669 1.039864,0.54058 1.290894,1.03264 0.265931,0.52127 0.20244,1.43283 -0.13357,1.91769 -0.338878,0.489 -0.857034,0.7775 -1.465393,0.81588 -0.267776,0.0169 -0.619011,-0.0137 -0.780522,-0.0679 z m -4.557429,-4.30771 c -0.813819,-0.40283 -1.202739,-1.36316 -0.938549,-2.31748 0.13131,-0.47432 0.768478,-1.09533 1.259501,-1.22754 0.82253,-0.22149 1.734584,0.10464 2.181567,0.78008 0.298675,0.45133 0.373726,1.40269 0.146191,1.85315 -0.200515,0.39697 -0.533305,0.73882 -0.905752,0.93039 -0.442197,0.22746 -1.263566,0.21869 -1.742958,-0.0186 z m 4.472615,0.086 c -0.900001,-0.35918 -1.37188,-1.39667 -1.093164,-2.40346 0.13131,-0.47432 0.768478,-1.09533 1.259501,-1.22754 0.82253,-0.22149 1.734584,0.10464 2.181567,0.78008 0.298675,0.45133 0.373726,1.40269 0.146191,1.85315 -0.200515,0.39697 -0.533305,0.73882 -0.905752,0.93039 -0.345341,0.17764 -1.219196,0.21471 -1.588343,0.0674 z"
       id="path3"
       sodipodi:nodetypes="ssscscsssssssssssssssccccsscccssccccccccccccccsscssscccccccscsccccccccccccccccssccccccccccccccccccccccccccccssscsscccccccccssccccsscccccccccccccccccccccccccccccccsscsscccsssccccccccccccccccccccccccccccssscsscccccccccccsscccsscccccsccccccccccccccccccccccccccccccssscssssssscssssssssssssssssssssscsssssscsssssscssssscssssssscsssscsssssssssssssssssssssssssssssssssssssss" /><path
       style="fill:#154700;fill-opacity:1"
       d="m 47.209987,133.19539 c -0.186266,-0.0659 -0.497196,-0.28704 -0.690954,-0.49137 -0.586965,-0.61898 -0.699364,-1.42353 -0.303879,-2.17517 0.337143,-0.64076 0.810084,-0.95673 1.49752,-1.00051 0.644572,-0.041 1.060339,0.0816 1.456897,0.4298 0.431103,0.37851 0.631193,0.82789 0.634044,1.424 0.0067,1.39376 -1.265663,2.28327 -2.593628,1.81325 z m 4.318,0 c -0.45697,-0.16174 -1.019557,-0.76893 -1.145377,-1.23619 -0.218495,-0.81143 0.110312,-1.72739 0.778927,-2.16986 0.403995,-0.26735 1.217201,-0.35829 1.720004,-0.19235 0.40865,0.13487 0.857382,0.53562 1.07301,0.95829 0.266657,0.52269 0.198866,1.4442 -0.142464,1.93657 -0.486504,0.70179 -1.450299,0.99866 -2.2841,0.70354 z m 4.233334,-0.0307 c -1.038561,-0.473 -1.438308,-1.76112 -0.855275,-2.75599 0.327689,-0.55916 0.78767,-0.83869 1.449436,-0.88083 0.637992,-0.0406 1.054594,0.083 1.450089,0.43023 0.484761,0.42562 0.64504,0.83431 0.608783,1.55232 -0.02612,0.51726 -0.07178,0.67487 -0.284267,0.98139 -0.503694,0.72659 -1.57971,1.03224 -2.368766,0.67288 z m -4.233334,-4.03333 c -0.45697,-0.16174 -1.019557,-0.76893 -1.145377,-1.23619 -0.218976,-0.81322 0.11038,-1.72743 0.782587,-2.17228 0.278652,-0.1844 0.468006,-0.23606 0.95555,-0.26068 0.682382,-0.0345 1.090129,0.1158 1.493075,0.5502 0.410391,0.44242 0.516668,0.75802 0.48258,1.43305 -0.02628,0.52039 -0.07101,0.67389 -0.285236,0.97869 -0.497646,0.70807 -1.448569,1.00261 -2.283179,0.70721 z m 4.318,0 c -0.456971,-0.16174 -1.019557,-0.76893 -1.145377,-1.23619 -0.218976,-0.81322 0.11038,-1.72743 0.782587,-2.17228 0.278652,-0.1844 0.468006,-0.23606 0.95555,-0.26068 0.682382,-0.0345 1.090129,0.1158 1.493075,0.5502 0.410391,0.44242 0.516668,0.75802 0.48258,1.43305 -0.02628,0.52039 -0.07102,0.67389 -0.285236,0.97869 -0.497646,0.70807 -1.448569,1.00261 -2.283179,0.70721 z m -8.382,-3.9312 c -1.386436,-0.33753 -1.942962,-1.99586 -1.038169,-3.09353 0.381577,-0.46292 0.851277,-0.67332 1.503836,-0.67365 0.615609,-3.1e-4 0.924482,0.12719 1.357777,0.56048 0.365998,0.366 0.522072,0.76616 0.52065,1.33491 -0.0015,0.60289 -0.10006,0.84649 -0.532102,1.3152 -0.482409,0.52335 -1.130628,0.72246 -1.811992,0.55659 z m 4.318,0 c -1.386436,-0.33753 -1.942962,-1.99586 -1.038169,-3.09353 0.381577,-0.46292 0.851277,-0.67332 1.503836,-0.67365 0.615608,-3.1e-4 0.924482,0.12719 1.357777,0.56048 0.369745,0.36975 0.50489,0.72583 0.50489,1.3303 0,0.64036 -0.08108,0.84761 -0.516342,1.31981 -0.482409,0.52335 -1.130628,0.72246 -1.811992,0.55659 z m 4.318,0 c -0.869558,-0.2117 -1.481666,-0.98347 -1.481666,-1.86817 0,-0.84166 0.634985,-1.6697 1.425916,-1.85944 0.578975,-0.1389 1.091258,-0.0558 1.549944,0.25128 0.531675,0.356 0.774758,0.75985 0.818109,1.35918 0.05463,0.75529 -0.03017,1.03455 -0.458994,1.51151 -0.514868,0.57265 -1.144123,0.77829 -1.853309,0.60564 z m -17.526,-4.31324 c -0.875619,-0.40167 -1.315195,-1.34455 -1.062907,-2.27989 0.120973,-0.4485 0.610276,-1.00693 1.062907,-1.21308 0.401778,-0.18298 1.123311,-0.20397 1.505553,-0.0438 1.271677,0.5329 1.59367,2.25923 0.597701,3.20451 -0.519084,0.49266 -1.437345,0.63772 -2.103254,0.33225 z m 4.233334,0 c -0.87562,-0.40167 -1.315196,-1.34455 -1.062907,-2.27989 0.120972,-0.4485 0.610276,-1.00693 1.062907,-1.21308 0.401777,-0.18298 1.12331,-0.20397 1.505552,-0.0438 1.288083,0.53978 1.606519,2.24704 0.597702,3.20451 -0.519085,0.49266 -1.437346,0.63772 -2.103254,0.33225 z m 4.217196,-0.0554 c -1.111596,-0.55393 -1.384401,-2.01164 -0.549729,-2.93742 0.395602,-0.43878 0.866408,-0.65388 1.436419,-0.65625 1.112726,-0.005 1.89784,0.80299 1.89237,1.94659 -0.0069,1.44062 -1.46234,2.30323 -2.77906,1.64708 z m 4.318,0 c -1.129098,-0.56265 -1.386329,-2.02627 -0.521089,-2.96494 0.859689,-0.93265 2.314946,-0.82305 3.009619,0.22667 0.270017,0.40803 0.361708,1.21876 0.194974,1.72396 -0.347545,1.05308 -1.631688,1.53846 -2.683504,1.01431 z m 4.20707,-0.0607 c -1.051307,-0.63129 -1.244481,-1.99912 -0.410159,-2.90425 0.859689,-0.93265 2.314946,-0.82305 3.009619,0.22667 0.476883,0.72062 0.33663,1.89983 -0.291565,2.45139 -0.420941,0.36959 -0.777409,0.50135 -1.356354,0.50135 -0.406098,0 -0.574301,-0.0486 -0.951541,-0.27516 z M 42.934321,116.7912 c -0.414495,-0.13845 -1.040216,-0.79072 -1.16651,-1.216 -0.336683,-1.13374 0.299505,-2.23952 1.427653,-2.48147 1.685554,-0.36148 2.937081,1.51774 1.980261,2.97345 -0.421339,0.64102 -1.472932,0.98071 -2.241404,0.72402 z m 4.318,-0.005 c -0.410907,-0.13024 -1.039297,-0.78256 -1.16651,-1.21094 -0.336298,-1.13244 0.299521,-2.23952 1.424797,-2.48085 1.198094,-0.25695 2.298646,0.63695 2.298646,1.86701 0,1.34911 -1.247904,2.2397 -2.556933,1.82478 z m 4.318,0.005 c -0.412703,-0.13785 -1.06559,-0.81205 -1.177826,-1.21628 -0.409502,-1.47483 0.799305,-2.79688 2.269094,-2.48167 0.497455,0.10669 1.039864,0.54058 1.290894,1.03264 0.257963,0.50565 0.20179,1.42578 -0.116395,1.90659 -0.447022,0.6755 -1.479683,1.0213 -2.265767,0.75872 z m 4.320677,3.5e-4 c -0.427656,-0.14363 -1.067397,-0.79827 -1.179084,-1.20653 -0.407407,-1.48922 0.792827,-2.80807 2.267675,-2.49177 0.497455,0.10669 1.039864,0.54058 1.290894,1.03264 0.265931,0.52127 0.20244,1.43283 -0.13357,1.91769 -0.338878,0.489 -0.857034,0.7775 -1.465393,0.81588 -0.267776,0.0169 -0.619011,-0.0137 -0.780522,-0.0679 z m -4.557429,-4.30771 c -0.813819,-0.40283 -1.202739,-1.36316 -0.938549,-2.31748 0.13131,-0.47432 0.768478,-1.09533 1.259501,-1.22754 0.82253,-0.22149 1.734584,0.10464 2.181567,0.78008 0.298675,0.45133 0.373726,1.40269 0.146191,1.85315 -0.200515,0.39697 -0.533305,0.73882 -0.905752,0.93039 -0.442197,0.22746 -1.263566,0.21869 -1.742958,-0.0186 z m 4.472615,0.086 c -0.900001,-0.35918 -1.37188,-1.39667 -1.093164,-2.40346 0.13131,-0.47432 0.768478,-1.09533 1.259501,-1.22754 0.82253,-0.22149 1.734584,0.10464 2.181567,0.78008 0.298675,0.45133 0.373726,1.40269 0.146191,1.85315 -0.200515,0.39697 -0.533305,0.73882 -0.905752,0.93039 -0.345341,0.17764 -1.219196,0.21471 -1.588343,0.0674 z"
       id="path1"
       sodipodi:nodetypes="ssscscsssssssssssssssssscssssssscssssssssssssssssssssscsssssscsssssscssssscssssssscsssscsssssssssssssssssssssssssssssssssssssss" /><path
       style="fill:#154734;fill-opacity:1"
       d="m 93.778423,142.60658 c -1.80627,-0.34815 -2.81519,-1.70762 -2.69287,-3.62852 0.0835,-1.31159 0.69263,-2.30815 1.74705,-2.85828 0.94888,-0.49508 3.14771,-0.57842 3.97933,-0.15083 0.53575,0.27546 0.59763,0.38198 0.64428,1.10906 0.0459,0.71534 0.0131,0.80433 -0.29633,0.80433 -0.19272,0 -0.34795,-0.11068 -0.34795,-0.2481 0,-0.41253 -0.99715,-1.41418 -1.52274,-1.52962 -0.32623,-0.0717 -0.75436,0.008 -1.26791,0.2348 -0.61118,0.27035 -0.84523,0.49691 -1.1053,1.06995 -0.61782,1.36126 -0.35442,3.19913 0.59447,4.14803 0.46692,0.46692 0.68363,0.55828 1.32422,0.55828 0.92247,0 1.73143,-0.58726 1.94374,-1.41104 0.0885,-0.34343 0.25833,-0.55401 0.47222,-0.58556 0.30586,-0.0451 0.32642,0.0263 0.24399,0.84667 -0.087,0.86584 -0.11561,0.90817 -0.85202,1.26031 -0.932,0.44568 -1.87565,0.57105 -2.86418,0.38052 z m 25.131507,-0.22194 c -2.08076,-0.9248 -2.16503,-4.10369 -0.14024,-5.29029 1.49821,-0.87802 3.58696,-0.41582 4.3144,0.95469 0.74569,1.40489 0.1979,3.43554 -1.12961,4.1874 -0.77986,0.44169 -2.22585,0.51207 -3.04455,0.1482 z m 2.46815,-0.70584 c 0.35362,-0.37632 0.41755,-0.62861 0.46125,-1.82033 0.0425,-1.1582 -0.006,-1.47375 -0.29641,-1.93801 -0.68882,-1.10039 -1.83664,-1.03808 -2.42106,0.13141 -0.32613,0.65264 -0.39877,2.24901 -0.13402,2.94536 0.43761,1.151 1.62972,1.49093 2.39024,0.68157 z m -23.380807,0.5617 c 0,-0.11762 0.16316,-0.28907 0.36258,-0.381 0.26732,-0.12324 0.55765,-0.72089 1.105,-2.27467 0.638027,-1.81122 0.706087,-2.12784 0.48408,-2.25208 -0.52811,-0.29554 -0.22745,-0.46641 0.820697,-0.46641 h 1.07904 l 0.84204,2.413 c 0.63612,1.82291 0.93128,2.45388 1.20697,2.58016 0.2007,0.0919 0.36492,0.26338 0.36492,0.381 0,0.15547 -0.39293,0.21384 -1.43933,0.21384 -1.46287,0 -1.70041,-0.11338 -1.10965,-0.52968 0.2421,-0.1706 0.30433,-0.35603 0.23426,-0.69798 -0.0908,-0.44335 -0.14239,-0.46567 -1.07512,-0.46567 -0.946627,0 -0.985967,0.018 -1.165597,0.53327 -0.23346,0.66973 -0.23531,0.65206 0.0681,0.65206 0.1397,0 0.253997,0.1143 0.253997,0.254 0,0.19756 -0.225777,0.254 -1.015997,0.254 -0.70544,0 -1.016,-0.0654 -1.016,-0.21384 z m 3.477977,-2.28382 c -0.0628,-0.16299 -0.2011,-0.62019 -0.30724,-1.016 -0.10614,-0.39582 -0.24638,-0.71967 -0.31165,-0.71967 -0.0653,0 -0.27307,0.4572 -0.46178,1.016 l -0.34311,1.016 h 0.76902 c 0.66303,0 0.75326,-0.0408 0.65476,-0.29633 z m 3.29535,2.33429 c 0,-0.0899 0.1524,-0.24494 0.33867,-0.34463 0.31169,-0.16681 0.33866,-0.35455 0.33866,-2.35687 0,-2.03322 -0.0222,-2.18142 -0.33866,-2.26419 -0.18627,-0.0487 -0.33867,-0.1719 -0.33867,-0.27375 0,-0.1195 0.51052,-0.18519 1.43933,-0.18519 1.45656,0 1.84341,0.19343 1.016,0.508 -0.42031,0.1598 -0.42333,0.17604 -0.42333,2.27182 0,1.2744 0.0696,2.15386 0.17555,2.21936 0.0966,0.0597 0.48673,0.0559 0.86707,-0.008 0.60008,-0.10138 0.72801,-0.20375 0.96745,-0.77411 0.15176,-0.36151 0.37933,-0.65806 0.50571,-0.659 0.14021,-0.001 0.18972,0.10269 0.127,0.26612 -0.0565,0.14732 -0.10278,0.60452 -0.10278,1.016 v 0.74815 h -2.286 c -1.35554,0 -2.286,-0.0665 -2.286,-0.16337 z m 6.77333,0 c 0,-0.0899 0.1524,-0.24494 0.33867,-0.34463 0.31708,-0.16969 0.33867,-0.35455 0.33867,-2.90047 0,-2.57682 -0.0177,-2.72387 -0.33867,-2.8078 -0.18627,-0.0487 -0.33867,-0.19397 -0.33867,-0.32281 0,-0.30017 3.27857,-0.33097 4.24999,-0.0399 1.28973,0.38641 1.83395,1.5957 1.18486,2.6328 -0.45316,0.72405 -0.97883,1.04349 -1.93218,1.17417 -0.90349,0.12383 -1.09069,-0.13918 -0.2962,-0.41614 0.52068,-0.18151 1.02687,-0.94713 1.02687,-1.55316 0,-0.65832 -0.47817,-1.31856 -1.10471,-1.52533 -1.08346,-0.35758 -1.09663,-0.32414 -1.09663,2.78406 0,2.62005 0.021,2.8046 0.33867,2.9746 0.65178,0.34883 0.33342,0.508 -1.016,0.508 -0.75729,0 -1.35467,-0.072 -1.35467,-0.16337 z m 12.36134,-0.0218 c 0,-0.10185 0.1524,-0.22504 0.33866,-0.27375 0.3172,-0.083 0.33867,-0.23097 0.33867,-2.33507 0,-2.10409 -0.0215,-2.25211 -0.33867,-2.33506 -0.18626,-0.0487 -0.33866,-0.1719 -0.33866,-0.27375 0,-0.1195 0.51052,-0.18519 1.43933,-0.18519 1.45966,0 1.84324,0.19349 1.01092,0.50993 l -0.42841,0.16288 0.0474,2.16127 0.0474,2.16126 0.73398,-0.0335 c 0.86842,-0.0396 1.15328,-0.23883 1.30059,-0.90956 0.15692,-0.71442 0.66966,-0.68242 0.5266,0.0329 -0.0582,0.29104 -0.10583,0.74824 -0.10583,1.016 v 0.48683 h -2.286 c -1.54158,0 -2.286,-0.0603 -2.286,-0.18518 z m 5.588,-0.0491 c 0,-0.12883 0.1524,-0.2741 0.33866,-0.32281 0.23153,-0.0606 0.33867,-0.23097 0.33867,-0.53874 0,-0.51868 -1.58007,-3.54381 -2.0152,-3.85822 -0.7326,-0.52934 -0.58332,-0.63398 0.90454,-0.63398 1.1754,0 1.44933,0.048 1.44933,0.254 0,0.1397 -0.1143,0.254 -0.254,0.254 -0.1397,0 -0.254,0.11546 -0.254,0.25657 0,0.34608 1.01822,2.13271 1.16409,2.04256 0.0637,-0.0393 0.34018,-0.5411 0.61449,-1.11501 0.45888,-0.96009 0.4754,-1.05652 0.20674,-1.20687 -0.56405,-0.31566 -0.28143,-0.48525 0.80868,-0.48525 0.60536,0 1.10066,0.0619 1.10066,0.13749 0,0.0756 -0.22907,0.30685 -0.50905,0.51385 -0.68757,0.50834 -1.86161,2.85933 -1.86161,3.72782 0,0.51894 0.0729,0.68042 0.33866,0.74991 0.18627,0.0487 0.33867,0.1719 0.33867,0.27375 0,0.11859 -0.48713,0.18518 -1.35467,0.18518 -1.0405,0 -1.35466,-0.0543 -1.35466,-0.23425 z"
       id="path2"
       sodipodi:nodetypes="sssssssccssssssssssssssscsssssssscssssscssssssssssscssssssssssscscsscsssssssssssssssssssscssssscccsssscsssscsssssscssssssssss" /><path
       style="fill:#154734;fill-opacity:1;stroke:#154734;stroke-width:0.765;stroke-opacity:1;stroke-dasharray:none"
       d="m 134.37316,139.58663 h 30.77633 v 0"
       id="path15" /><path
       style="fill:#154734;fill-opacity:1;stroke:#154734;stroke-width:0.765;stroke-dasharray:none;stroke-opacity:1"
       d="m 59.056625,139.64436 h 30.77633 v 0"
       id="path15-8" /></g></svg>
